<?xml version="1.0" encoding="utf-8"?>
<!-- Generator: Adobe Illustrator 24.3.0, SVG Export Plug-In . SVG Version: 6.00 Build 0)  -->
<svg version="1.1" id="Layer_1" xmlns="http://www.w3.org/2000/svg" xmlns:xlink="http://www.w3.org/1999/xlink" x="0px" y="0px"
	 viewBox="0 0 300 300" enable-background="new 0 0 300 300" xml:space="preserve">
<g>
	<g>
		<g>
			<path fill="#F4F4F4" d="M115.148,184.548h0.003c-2.326-2.758-3.733-6.311-3.733-10.2c0-4.78,2.164-9.013,5.518-11.914
				l-0.98-35.016c12.58-3.348,21.862-14.785,21.862-28.415V80.551v-6.888V35.173c0-3.425-2.768-6.195-6.189-6.195
				s-6.195,2.77-6.195,6.195v50.103h-10.851V35.173c0-3.425-2.771-6.195-6.192-6.195c-3.422,0-6.192,2.77-6.192,6.195v50.103H91.342
				V35.173c0-3.425-2.77-6.195-6.192-6.195c-3.419,0-6.192,2.77-6.192,6.195v38.491v6.888v18.452
				c0,13.63,9.282,25.068,21.862,28.415l-3.706,132.545c0,6.225,5.047,11.275,11.274,11.275c6.228,0,11.275-5.05,11.275-11.275
				l-2.03-72.618L115.148,184.548z"/>
		</g>
		<g>
			<path fill="#F9F9F9" d="M106.399,259.964l3.706-132.545c-12.58-3.348-21.862-14.785-21.862-28.415V80.551v-6.888V35.173
				c0-1.563,0.598-2.972,1.551-4.061c-1.137-1.3-2.785-2.134-4.644-2.134c-3.419,0-6.192,2.77-6.192,6.195v38.491v6.888v18.452
				c0,13.63,9.282,25.068,21.862,28.415l-3.706,132.545c0,6.225,5.047,11.275,11.274,11.275c1.661,0,3.223-0.379,4.644-1.024
				C109.125,268.441,106.399,264.528,106.399,259.964z"/>
		</g>
		<g>
			<path fill="#F4F4F4" d="M221.043,81.3c0-23.993-14.474-52.539-32.331-52.539c-17.854,0-32.328,28.545-32.328,52.539
				c0,20.367,10.443,30.875,24.514,33.598l-1.643,68.931c2.238,1.717,3.706,4.393,3.706,7.433c0,2.309-0.835,4.416-2.214,6.05
				l0.006,0.006l-1.87,2.104l-1.442,60.542c0,6.225,5.047,11.275,11.274,11.275c6.228,0,11.274-5.05,11.274-11.275l-3.457-145.069
				C210.603,112.175,221.043,101.664,221.043,81.3z"/>
		</g>
		<g>
			<path fill="#F9F9F9" d="M186.403,259.964l1.441-60.542l1.871-2.104l-0.006-0.006c1.379-1.634,2.214-3.741,2.214-6.05
				c0-3.04-1.468-5.716-3.706-7.433l1.643-68.931c-14.071-2.723-24.514-13.231-24.514-33.598c0-21.915,12.085-47.554,27.782-51.846
				c-1.489-0.409-2.999-0.693-4.547-0.693c-17.854,0-32.329,28.545-32.329,52.539c0,20.367,10.443,30.875,24.514,33.598
				l-1.643,68.931c2.238,1.717,3.706,4.393,3.706,7.433c0,2.309-0.835,4.416-2.214,6.05l0.006,0.006l-1.871,2.104l-1.442,60.542
				c0,6.225,5.047,11.275,11.274,11.275c1.622,0,3.153-0.355,4.546-0.971C189.173,268.515,186.403,264.57,186.403,259.964z"/>
		</g>
		<g>
			<g>
				<path fill="#9AE8CE" d="M182.957,191.262c0-5.189-4.203-9.395-9.389-9.395c-5.044,0-9.14,3.972-9.371,8.957l-0.036-0.012
					l-0.012,0.006c-0.231-4.982-4.333-8.951-9.371-8.951c-5.186,0-9.395,4.206-9.395,9.395c0,2.309,0.84,4.416,2.22,6.056h-0.006
					l16.575,18.665l16.576-18.665l-0.006-0.006C182.123,195.678,182.957,193.57,182.957,191.262z"/>
			</g>
			<g>
				<g>
					<path fill="#AEF4DB" d="M153.465,197.317h0.006c-1.379-1.64-2.22-3.747-2.22-6.056c0-4.162,2.723-7.649,6.471-8.88
						c-0.929-0.308-1.906-0.515-2.942-0.515c-5.186,0-9.395,4.206-9.395,9.395c0,2.309,0.84,4.416,2.22,6.056h-0.006l16.575,18.665
						l2.93-3.303L153.465,197.317z"/>
				</g>
			</g>
			<g>
				<path fill="#FE6F80" d="M147.598,197.317h0.006c-1.379-1.64-2.22-3.747-2.22-6.056c0-5.189,4.209-9.395,9.395-9.395
					c5.038,0,9.14,3.969,9.371,8.951l0.012-0.006l0.036,0.012c0.213-4.694,3.878-8.448,8.513-8.874
					c1.249-2.256,1.983-4.837,1.983-7.601c0-8.735-7.08-15.818-15.818-15.818c-8.489,0-15.392,6.69-15.783,15.084l-0.053-0.024
					l-0.024,0.012c-0.391-8.389-7.293-15.072-15.783-15.072c-8.732,0-15.818,7.083-15.818,15.818c0,3.889,1.409,7.441,3.735,10.2
					h-0.006l27.912,31.434l10.555-11.893L147.598,197.317z"/>
			</g>
			<g>
				<path fill="#FFA1AA" d="M123.859,184.548h0.006c-2.326-2.758-3.735-6.311-3.735-10.2c0-7.213,4.86-13.231,11.467-15.134
					c-1.391-0.402-2.836-0.684-4.363-0.684c-8.732,0-15.818,7.083-15.818,15.818c0,3.889,1.409,7.441,3.735,10.2h-0.006
					l27.912,31.434l4.357-4.907L123.859,184.548z"/>
			</g>
		</g>
	</g>
	<g>
		<g>
			<g>
				<path fill="#161616" d="M164.177,220.529c-1.299,0-2.537-0.556-3.401-1.527L144.2,200.337c-2.196-2.614-3.36-5.805-3.36-9.075
					c0-7.687,6.254-13.941,13.941-13.941c3.614,0,6.914,1.373,9.395,3.638c2.477-2.264,5.778-3.638,9.395-3.638
					c7.684,0,13.935,6.254,13.935,13.941c0,3.17-1.089,6.254-3.072,8.723c-0.086,0.121-0.18,0.237-0.281,0.352l-16.576,18.665
					C166.713,219.973,165.476,220.529,164.177,220.529z M154.782,186.413c-2.673,0-4.848,2.175-4.848,4.848
					c0,1.456,0.625,2.504,1.148,3.126l13.095,14.749l12.994-14.631c0.033-0.044,0.065-0.086,0.101-0.127
					c0.521-0.616,1.143-1.657,1.143-3.117c0-2.673-2.173-4.848-4.842-4.848c-2.59,0-4.712,2.03-4.834,4.62
					c-0.065,1.445-0.817,2.771-2.019,3.573c-1.083,0.719-2.406,0.938-3.655,0.622c-0.417-0.104-0.823-0.266-1.205-0.491
					c-1.326-0.778-2.176-2.17-2.247-3.706C159.491,188.441,157.369,186.413,154.782,186.413z"/>
			</g>
			<g>
				<path fill="#161616" d="M143.061,220.529c-1.299,0-2.537-0.556-3.401-1.527l-27.912-31.434
					c-3.17-3.765-4.875-8.427-4.875-13.219c0-11.23,9.134-20.364,20.364-20.364c6.379,0,12.085,2.927,15.821,7.542
					c3.732-4.615,9.439-7.542,15.821-7.542c11.23,0,20.364,9.134,20.364,20.364c0,3.392-0.882,6.781-2.551,9.8
					c-0.728,1.317-2.063,2.19-3.561,2.329c-2.395,0.219-4.283,2.178-4.393,4.555c-0.065,1.445-0.814,2.771-2.019,3.573
					c-1.083,0.719-2.406,0.947-3.655,0.619c-0.417-0.101-0.823-0.266-1.205-0.488c-1.326-0.778-2.176-2.17-2.247-3.706
					c-0.121-2.59-2.244-4.617-4.831-4.617c-2.673,0-4.848,2.175-4.848,4.848c0,1.456,0.625,2.504,1.148,3.126v0.003l5.932,6.681
					c1.53,1.723,1.53,4.316,0.003,6.038l-10.555,11.893C145.597,219.973,144.36,220.529,143.061,220.529z M127.237,163.077
					c-6.216,0-11.271,5.056-11.271,11.271c0,2.691,0.921,5.204,2.661,7.27l24.434,27.516l4.475-5.044l-3.333-3.753
					c-0.03-0.033-0.056-0.065-0.083-0.098c-2.116-2.516-3.28-5.707-3.28-8.977c0-7.687,6.254-13.941,13.941-13.941
					c3.632,0,6.947,1.385,9.43,3.67c1.51-1.37,3.321-2.418,5.325-3.028c0.406-1.166,0.613-2.377,0.613-3.614
					c0-6.216-5.056-11.271-11.271-11.271c-6.023,0-10.964,4.721-11.242,10.747c-0.068,1.501-0.873,2.868-2.152,3.659
					c-1.116,0.687-2.475,0.852-3.706,0.482c-0.364-0.104-0.713-0.252-1.048-0.447c-1.326-0.779-2.181-2.167-2.253-3.703
					C138.194,167.795,133.257,163.077,127.237,163.077z"/>
			</g>
		</g>
		<g>
			<path fill="#161616" d="M108.388,275.785c-8.723,0-15.821-7.098-15.821-15.821l0.219-7.894c0.071-2.51,2.099-4.564,4.671-4.416
				c2.51,0.068,4.487,2.161,4.416,4.671l-0.216,7.767c0.003,3.582,3.022,6.601,6.731,6.601s6.728-3.019,6.728-6.728l-1.983-70.837
				l-1.385-1.56c-3.17-3.765-4.875-8.427-4.875-13.219c0-5.115,1.968-10.025,5.464-13.784l-0.924-33.018
				c-0.059-2.107,1.338-3.978,3.374-4.52c10.884-2.898,18.485-12.775,18.485-24.023V35.173c0-0.909-0.737-1.649-1.643-1.649
				c-0.909,0-1.649,0.74-1.649,1.649v50.103c0,2.51-2.037,4.546-4.547,4.546h-10.851c-2.51,0-4.546-2.036-4.546-4.546V35.173
				c0-0.909-0.737-1.649-1.646-1.649s-1.646,0.74-1.646,1.649v50.103c0,2.51-2.036,4.546-4.547,4.546H91.342
				c-2.51,0-4.547-2.036-4.547-4.546V35.173c0-0.909-0.737-1.649-1.646-1.649s-1.646,0.74-1.646,1.649v63.831
				c0,11.248,7.601,21.125,18.485,24.023c2.036,0.542,3.434,2.412,3.374,4.52l-2.924,104.633c-0.068,2.51-2.232,4.514-4.671,4.416
				c-2.51-0.068-4.487-2.161-4.416-4.671l2.83-101.238c-12.982-4.996-21.77-17.546-21.77-31.683V35.173
				c0-5.923,4.819-10.742,10.739-10.742c5.92,0,10.739,4.819,10.739,10.742v45.556h1.764V35.173c0-5.923,4.819-10.742,10.739-10.742
				c5.92,0,10.739,4.819,10.739,10.742v45.556h1.758V35.173c0-5.923,4.819-10.742,10.741-10.742c5.92,0,10.736,4.819,10.736,10.742
				v63.831c0,14.137-8.788,26.687-21.77,31.683l0.885,31.621c0.038,1.365-0.536,2.673-1.569,3.567
				c-2.545,2.199-3.946,5.21-3.946,8.474c0,2.691,0.921,5.204,2.661,7.27l2.406,2.711c0.71,0.799,1.113,1.82,1.143,2.889
				l2.031,72.619C124.209,268.687,117.111,275.785,108.388,275.785z"/>
		</g>
		<g>
			<path fill="#161616" d="M188.714,275.785c-8.723,0-15.821-7.098-15.821-15.821l1.441-60.652c0.027-1.074,0.432-2.107,1.148-2.91
				l1.687-1.9c0.033-0.041,0.068-0.083,0.101-0.124c0.521-0.616,1.143-1.657,1.143-3.117c0-1.492-0.702-2.886-1.927-3.824
				c-1.151-0.885-1.811-2.264-1.779-3.718l1.557-65.272c-15.584-4.597-24.428-17.925-24.428-37.147
				c0-26.4,16.108-57.085,36.875-57.085c20.77,0,36.878,30.686,36.878,57.085c0,19.222-8.844,32.55-24.425,37.144l0.713,29.904
				c0.059,2.513-1.927,4.594-4.437,4.656c-2.548,0.021-4.597-1.927-4.656-4.437l-0.799-33.563c-0.05-2.22,1.504-4.153,3.682-4.573
				c13.628-2.634,20.829-12.707,20.829-29.132c0-21.604-12.822-47.992-27.785-47.992c-14.962,0-27.782,26.388-27.782,47.992
				c0,16.422,7.204,26.497,20.832,29.134c2.178,0.42,3.732,2.353,3.682,4.573l-1.595,66.882c2.347,2.552,3.658,5.858,3.658,9.371
				c0,3.17-1.089,6.254-3.072,8.723c-0.086,0.121-0.184,0.24-0.284,0.352l-0.764,0.861l-1.4,58.876c0,3.599,3.019,6.618,6.728,6.618
				s6.728-3.019,6.728-6.728l-2.179-91.252c-0.059-2.51,1.927-4.594,4.437-4.656c2.572-0.077,4.597,1.927,4.656,4.437l2.178,91.361
				C204.535,268.687,197.437,275.785,188.714,275.785z"/>
		</g>
	</g>
</g>
</svg>
